<svg xmlns="http://www.w3.org/2000/svg" version="1.1" xmlns:xlink="http://www.w3.org/1999/xlink" xmlns:svgjs="http://svgjs.com/svgjs" width="1440" height="720" preserveAspectRatio="none" viewBox="0 0 1440 720">
    <g mask="url(&quot;#SvgjsMask1016&quot;)" fill="none">
        <rect width="1440" height="720" x="0" y="0" fill="rgba(14, 71, 23, 1)"></rect>
        <path d="M0,468.872C84.282,448.575,154.97,401.47,227.218,353.558C298.396,306.355,376.368,265.394,418.69,191.209C463.015,113.514,481.242,21.167,467.248,-67.18C453.354,-154.893,402.931,-231.777,341.526,-295.934C282.185,-357.935,203.063,-389.797,124.789,-424.991C34.179,-465.732,-54.2,-535.004,-152.058,-517.86C-251.76,-500.393,-320.061,-411.263,-386.995,-335.333C-454.43,-258.835,-531.721,-179.287,-540.109,-77.656C-548.375,22.497,-469.004,103.797,-430.91,196.79C-390.857,294.566,-399.77,426.621,-310.427,483.033C-221.032,539.478,-102.786,493.625,0,468.872" fill="#0b3912"></path>
        <path d="M1440 1038.828C1520.238 1050.2640000000001 1597.1399999999999 1109.963 1673.906 1083.965 1753.233 1057.1 1815.509 982.892 1840.868 903.0699999999999 1865.412 825.814 1821.505 746.955 1806.267 667.3389999999999 1791.849 592.009 1803.158 506.796 1753.79 448.1 1704.255 389.206 1621.454 374.457 1546.24 358.178 1475.48 342.863 1404.337 342.41 1333.449 357.121 1257.561 372.87 1175.307 388.101 1123.645 445.877 1071.755 503.90700000000004 1073.336 588.7529999999999 1058.07 665.087 1041.863 746.128 993.19 833.326 1031.516 906.548 1069.923 979.925 1166.557 997.367 1245.35 1022.8820000000001 1308.565 1043.353 1374.218 1029.452 1440 1038.828" fill="#11551c"></path>
    </g>
    <defs>
        <mask id="SvgjsMask1016">
            <rect width="1440" height="720" fill="#ffffff"></rect>
        </mask>
    </defs>
</svg>