<svg xmlns="http://www.w3.org/2000/svg" version="1.1" xmlns:xlink="http://www.w3.org/1999/xlink" xmlns:svgjs="http://svgjs.com/svgjs" width="1440" height="800" preserveAspectRatio="none" viewBox="0 0 1440 800">
    <g mask="url(&quot;#SvgjsMask1067&quot;)" fill="none">
        <rect width="1440" height="800" x="0" y="0" fill="rgba(14, 71, 23, 1)"></rect>
        <path d="M23.91 566.68 a159.01 159.01 0 1 0 318.02 0 a159.01 159.01 0 1 0 -318.02 0z" fill="rgba(92, 184, 92, 1)" class="triangle-float2"></path>
        <path d="M-117.25 140.99 a182.77 182.77 0 1 0 365.54 0 a182.77 182.77 0 1 0 -365.54 0z" fill="rgba(92, 184, 92, 1)" class="triangle-float2"></path>
        <path d="M556.11 606.76 a174.9 174.9 0 1 0 349.8 0 a174.9 174.9 0 1 0 -349.8 0z" fill="rgba(92, 184, 92, 1)" class="triangle-float2"></path>
        <path d="M1153.39 526.59 a221.2 221.2 0 1 0 442.4 0 a221.2 221.2 0 1 0 -442.4 0z" fill="rgba(92, 184, 92, 1)" class="triangle-float3"></path>
    </g>
    <defs>
        <mask id="SvgjsMask1067">
            <rect width="1440" height="800" fill="#ffffff"></rect>
        </mask>
        <style>
            @keyframes float1 {
                0%{transform: translate(0, 0)}
                50%{transform: translate(-10px, 0)}
                100%{transform: translate(0, 0)}
            }

            .triangle-float1 {
                animation: float1 5s infinite;
            }

            @keyframes float2 {
                0%{transform: translate(0, 0)}
                50%{transform: translate(-5px, -5px)}
                100%{transform: translate(0, 0)}
            }

            .triangle-float2 {
                animation: float2 4s infinite;
            }

            @keyframes float3 {
                0%{transform: translate(0, 0)}
                50%{transform: translate(0, -10px)}
                100%{transform: translate(0, 0)}
            }

            .triangle-float3 {
                animation: float3 6s infinite;
            }
        </style>
    </defs>
</svg>