<svg xmlns="http://www.w3.org/2000/svg" version="1.1" xmlns:xlink="http://www.w3.org/1999/xlink" xmlns:svgjs="http://svgjs.com/svgjs" width="1440" height="780" preserveAspectRatio="none" viewBox="0 0 1440 780">
    <g mask="url(&quot;#SvgjsMask1001&quot;)" fill="none">
        <rect width="1440" height="780" x="0" y="0" fill="rgba(14, 71, 23, 1)"></rect>
        <path d="M1270.68 174.91 a144.77 144.77 0 1 0 289.54 0 a144.77 144.77 0 1 0 -289.54 0z" fill="rgba(84, 169, 84, 1)" class="triangle-float2"></path>
        <path d="M820.44 701.39 a142.75 142.75 0 1 0 285.5 0 a142.75 142.75 0 1 0 -285.5 0z" fill="rgba(84, 169, 84, 1)" class="triangle-float1"></path>
        <path d="M801.3 91.72 a152.87 152.87 0 1 0 305.74 0 a152.87 152.87 0 1 0 -305.74 0z" fill="rgba(84, 169, 84, 1)" class="triangle-float1"></path>
        <path d="M-134.72 552.03 a163.64 163.64 0 1 0 327.28 0 a163.64 163.64 0 1 0 -327.28 0z" fill="rgba(84, 169, 84, 1)" class="triangle-float3"></path>
    </g>
    <defs>
        <mask id="SvgjsMask1001">
            <rect width="1440" height="780" fill="#ffffff"></rect>
        </mask>
        <style>
            @keyframes float1 {
                0%{transform: translate(0, 0)}
                50%{transform: translate(-10px, 0)}
                100%{transform: translate(0, 0)}
            }

            .triangle-float1 {
                animation: float1 5s infinite;
            }

            @keyframes float2 {
                0%{transform: translate(0, 0)}
                50%{transform: translate(-5px, -5px)}
                100%{transform: translate(0, 0)}
            }

            .triangle-float2 {
                animation: float2 4s infinite;
            }

            @keyframes float3 {
                0%{transform: translate(0, 0)}
                50%{transform: translate(0, -10px)}
                100%{transform: translate(0, 0)}
            }

            .triangle-float3 {
                animation: float3 6s infinite;
            }
        </style>
    </defs>
</svg>