<svg xmlns="http://www.w3.org/2000/svg" version="1.1" xmlns:xlink="http://www.w3.org/1999/xlink" xmlns:svgjs="http://svgjs.com/svgjs" width="1440" height="740" preserveAspectRatio="none" viewBox="0 0 1440 740">
    <g mask="url(&quot;#SvgjsMask1137&quot;)" fill="none">
        <rect width="1440" height="740" x="0" y="0" fill="rgba(14, 71, 23, 1)"></rect>
        <path d="M1111.65 651.44 a145.32 145.32 0 1 0 290.64 0 a145.32 145.32 0 1 0 -290.64 0z" fill="rgba(84, 169, 84, 1)" class="triangle-float2"></path>
        <path d="M626.52 329.13 a224.63 224.63 0 1 0 449.26 0 a224.63 224.63 0 1 0 -449.26 0z" fill="rgba(84, 169, 84, 1)" class="triangle-float3"></path>
        <path d="M-23.56 155.64 a130.45 130.45 0 1 0 260.9 0 a130.45 130.45 0 1 0 -260.9 0z" fill="rgba(84, 169, 84, 1)" class="triangle-float3"></path>
        <path d="M990.89 10.52 a143.31 143.31 0 1 0 286.62 0 a143.31 143.31 0 1 0 -286.62 0z" fill="rgba(84, 169, 84, 1)" class="triangle-float1"></path>
    </g>
    <defs>
        <mask id="SvgjsMask1137">
            <rect width="1440" height="740" fill="#ffffff"></rect>
        </mask>
        <style>
            @keyframes float1 {
                0%{transform: translate(0, 0)}
                50%{transform: translate(-10px, 0)}
                100%{transform: translate(0, 0)}
            }

            .triangle-float1 {
                animation: float1 5s infinite;
            }

            @keyframes float2 {
                0%{transform: translate(0, 0)}
                50%{transform: translate(-5px, -5px)}
                100%{transform: translate(0, 0)}
            }

            .triangle-float2 {
                animation: float2 4s infinite;
            }

            @keyframes float3 {
                0%{transform: translate(0, 0)}
                50%{transform: translate(0, -10px)}
                100%{transform: translate(0, 0)}
            }

            .triangle-float3 {
                animation: float3 6s infinite;
            }
        </style>
    </defs>
</svg>