<svg id="Capa_1" enable-background="new 0 0 512 512" height="512" viewBox="0 0 512 512" width="512" xmlns="http://www.w3.org/2000/svg"><g><g><g><g><g><g><g><circle cx="256" cy="256" fill="#00d65b" r="256"/></g></g></g></g></g></g><path d="m512 256c0-6.297-.228-12.54-.674-18.723l-107.396-107.395-294.221 254.175 127.245 127.245c6.288.462 12.64.698 19.046.698 141.385 0 256-114.615 256-256z" fill="#0bb24f"/><g><g><g><g><g><g><path d="m447.5 289.736c-4.119 23.51-12.463 45.617-24.222 65.412l-121.254 89.749c-14.745 3.575-30.181 5.501-46.024 5.501-8.741 0-17.322-.541-25.758-1.658l-130.051-76.447c-20.921-28.001-34.484-61.853-37.798-98.632-.524-5.818-.792-11.708-.792-17.661l46.447-126.118c19.554-22.909 44.362-41.24 72.525-53.107l150.857.002c33.221 13.999 61.782 36.969 82.561 65.871z" fill="#fff"/></g></g></g></g></g></g><path d="m256 450.399c15.839-.001 31.284-1.928 46.024-5.501l121.253-89.749c11.759-19.796 20.103-41.902 24.222-65.412l-33.507-147.087c-20.779-28.902-49.34-51.872-82.561-65.871l-75.431-.002z" fill="#e9edf5"/><g><path d="m256 178.217-75.483 54.836 28.832 88.736h93.302l28.832-88.736z" fill="#707789"/></g><g><path d="m331.483 233.053-75.483-54.836v143.571h46.651z" fill="#555a66"/></g><g><path d="m180.572 76.777 75.428 55.006 75.428-55.006c-23.194-9.773-48.68-15.176-75.428-15.176s-52.234 5.403-75.428 15.176z" fill="#707789"/></g><g><path d="m331.428 76.777c-23.189-9.771-48.685-15.174-75.428-15.175v70.182z" fill="#555a66"/></g><g><path d="m413.993 142.649-36.884 85.762 70.391 61.325c4.377-24.785 3.984-50.834-1.957-76.914s-16.87-49.73-31.55-70.173z" fill="#555a66"/></g><g><path d="m230.243 448.74-37.148-85.648-92.903 9.201c15.042 20.178 34.276 37.751 57.335 51.306 23.059 13.556 47.768 21.813 72.716 25.141z" fill="#707789"/></g><g><path d="m423.278 355.148-93.355.658-27.899 89.091c24.456-5.943 48.156-16.763 69.655-32.677 21.5-15.913 38.771-35.418 51.599-57.072z" fill="#555a66"/></g><g><path d="m62.394 273.666 75.258-55.244-29.606-88.538c-16.333 19.148-29.195 41.805-37.29 67.299-8.095 25.493-10.658 51.419-8.362 76.483z" fill="#707789"/></g></g></svg>